<svg aria-hidden="true" style="position: absolute; width: 0; height: 0; overflow: hidden;" version="1.1" xmlns="http://www.w3.org/2000/svg" xmlns:xlink="http://www.w3.org/1999/xlink">
<defs>
<symbol id="heart-red" viewBox="0 0 32 32">
<path fill="#ed3f3f" style="fill: var(--color1, #ed3f3f)" d="M21.92 4.133c-2.413 0-4.573 1.173-5.92 2.973-1.347-1.8-3.507-2.973-5.92-2.973-4.093 0-7.413 3.333-7.413 7.453 0 1.587 0.253 3.053 0.693 4.413 2.107 6.667 8.6 10.653 11.813 11.747 0.453 0.16 1.2 0.16 1.653 0 3.213-1.093 9.707-5.080 11.813-11.747 0.44-1.36 0.693-2.827 0.693-4.413 0-4.12-3.32-7.453-7.413-7.453z"></path>
</symbol>
<symbol id="star" viewBox="0 0 36 32">
<path fill="#fbad39" style="fill: var(--color2, #fbad39)" d="M16.333 1.317c0.115-0.365 0.344-0.684 0.652-0.91s0.682-0.348 1.064-0.348c0.383 0 0.756 0.122 1.064 0.348s0.537 0.545 0.652 0.91l3.1 9.533h10c0.396-0.015 0.787 0.1 1.112 0.328s0.566 0.556 0.687 0.934c0.121 0.378 0.115 0.785-0.017 1.159s-0.383 0.695-0.715 0.913l-8.117 5.883 3.1 9.55c0.123 0.364 0.126 0.757 0.009 1.123s-0.348 0.684-0.658 0.91c-0.311 0.225-0.686 0.345-1.069 0.342s-0.757-0.128-1.064-0.358l-8.133-5.95-8.117 5.9c-0.307 0.23-0.68 0.355-1.064 0.358s-0.759-0.117-1.069-0.342c-0.311-0.225-0.542-0.544-0.658-0.91s-0.114-0.759 0.009-1.123l3.1-9.55-8.117-5.883c-0.332-0.218-0.583-0.538-0.715-0.913s-0.138-0.781-0.017-1.159c0.121-0.378 0.362-0.706 0.687-0.934s0.715-0.343 1.112-0.328h10l3.183-9.483z"></path>
</symbol>
<symbol id="star-empty" viewBox="0 0 32 32">
<path fill="none" stroke="#c3d4e9" style="stroke: var(--color3, #c3d4e9)" stroke-linejoin="round" stroke-linecap="round" stroke-miterlimit="4" stroke-width="2.4" d="M14.667 4.254c0.092-0.292 0.275-0.547 0.522-0.728s0.545-0.279 0.851-0.279c0.306 0 0.604 0.098 0.851 0.279s0.43 0.436 0.522 0.728l2.48 7.627h8c0.317-0.012 0.63 0.080 0.889 0.262s0.453 0.445 0.55 0.747c0.097 0.302 0.092 0.628-0.014 0.927s-0.307 0.556-0.572 0.73l-6.493 4.707 2.48 7.64c0.098 0.291 0.101 0.606 0.007 0.898s-0.278 0.547-0.527 0.728c-0.249 0.18-0.548 0.276-0.856 0.274s-0.605-0.103-0.852-0.286l-6.507-4.76-6.493 4.72c-0.246 0.184-0.544 0.284-0.851 0.286s-0.607-0.094-0.856-0.274c-0.249-0.18-0.433-0.435-0.527-0.728s-0.091-0.607 0.007-0.898l2.48-7.64-6.493-4.707c-0.265-0.174-0.466-0.431-0.572-0.73s-0.111-0.625-0.014-0.927c0.097-0.302 0.29-0.565 0.55-0.747s0.572-0.274 0.889-0.262h8l2.547-7.587z"></path>
</symbol>
</defs>
</svg>
