<svg aria-hidden="true" style="position: absolute; width: 0; height: 0; overflow: hidden;" version="1.1" xmlns="http://www.w3.org/2000/svg" xmlns:xlink="http://www.w3.org/1999/xlink">
<defs>
<symbol id="car" viewBox="0 0 32 32">
<path fill="#90a3bf" style="fill: var(--color1, #90a3bf)" d="M16 2.667c-7.36 0-13.333 5.973-13.333 13.333s5.973 13.333 13.333 13.333c7.36 0 13.333-5.973 13.333-13.333s-5.96-13.333-13.333-13.333z"></path>
<path fill="#fff" style="fill: var(--color2, #fff)" d="M16 5.333c5.891 0 10.667 4.776 10.667 10.667s-4.776 10.667-10.667 10.667c-5.891 0-10.667-4.776-10.667-10.667s4.776-10.667 10.667-10.667z"></path>
<path fill="#90a3bf" style="fill: var(--color1, #90a3bf)" d="M16 8c-4.416 0-8 3.584-8 8s3.584 8 8 8c4.416 0 8-3.584 8-8s-3.576-8-8-8z"></path>
<path fill="#fff" style="fill: var(--color2, #fff)" d="M16 10.667c2.946 0 5.333 2.388 5.333 5.333s-2.388 5.333-5.333 5.333c-2.946 0-5.333-2.388-5.333-5.333s2.388-5.333 5.333-5.333z"></path>
<path fill="#90a3bf" style="fill: var(--color1, #90a3bf)" d="M14.667 22.667h2.667v5.333h-2.667v-5.333z"></path>
<path fill="#90a3bf" style="fill: var(--color1, #90a3bf)" d="M22.667 14.667h5.333v2.667h-5.333v-2.667z"></path>
<path fill="#90a3bf" style="fill: var(--color1, #90a3bf)" d="M4 14.667h5.333v2.667h-5.333v-2.667z"></path>
</symbol>
<symbol id="ceklist" viewBox="0 0 32 32">
<path fill="none" stroke="#90a3bf" style="stroke: var(--color1, #90a3bf)" stroke-linejoin="miter" stroke-linecap="butt" stroke-miterlimit="4" stroke-width="1.3333" d="M28.667 10.412v11.175c0 2.294-0.682 4.045-1.859 5.222s-2.929 1.858-5.225 1.858h-11.166c-2.295 0-4.047-0.681-5.225-1.86s-1.859-2.933-1.859-5.234v-11.16c0-2.294 0.682-4.045 1.859-5.222s2.93-1.858 5.225-1.858h11.179c2.295 0 4.047 0.681 5.223 1.858s1.854 2.927 1.848 5.22z"></path>
</symbol>
<symbol id="filter" viewBox="0 0 32 32">
<path fill="none" stroke="#3d5278" style="stroke: var(--color3, #3d5278)" stroke-linejoin="round" stroke-linecap="round" stroke-miterlimit="10" stroke-width="2" d="M29.333 8.667h-8"></path>
<path fill="none" stroke="#3d5278" style="stroke: var(--color3, #3d5278)" stroke-linejoin="round" stroke-linecap="round" stroke-miterlimit="10" stroke-width="2" d="M8 8.667h-5.333"></path>
<path fill="none" stroke="#3d5278" style="stroke: var(--color3, #3d5278)" stroke-linejoin="round" stroke-linecap="round" stroke-miterlimit="10" stroke-width="2" d="M13.333 13.333c2.577 0 4.667-2.089 4.667-4.667s-2.089-4.667-4.667-4.667c-2.577 0-4.667 2.089-4.667 4.667s2.089 4.667 4.667 4.667z"></path>
<path fill="none" stroke="#3d5278" style="stroke: var(--color3, #3d5278)" stroke-linejoin="round" stroke-linecap="round" stroke-miterlimit="10" stroke-width="2" d="M29.333 23.333h-5.333"></path>
<path fill="none" stroke="#3d5278" style="stroke: var(--color3, #3d5278)" stroke-linejoin="round" stroke-linecap="round" stroke-miterlimit="10" stroke-width="2" d="M10.667 23.333h-8"></path>
<path fill="none" stroke="#3d5278" style="stroke: var(--color3, #3d5278)" stroke-linejoin="round" stroke-linecap="round" stroke-miterlimit="10" stroke-width="2" d="M18.667 28c2.577 0 4.667-2.089 4.667-4.667s-2.089-4.667-4.667-4.667c-2.577 0-4.667 2.089-4.667 4.667s2.089 4.667 4.667 4.667z"></path>
</symbol>
<symbol id="gas-station" viewBox="0 0 32 32">
<path fill="#90a3bf" style="fill: var(--color1, #90a3bf)" d="M29.787 12.44l-2.667-1.333c-0.493-0.24-1.107-0.053-1.347 0.44-0.253 0.507-0.053 1.107 0.44 1.347l2.12 1.053v6.387l-5 0.013v-13.68c0-2.667-1.787-4-4-4h-10.667c-2.213 0-4 1.333-4 4v21.667h-2c-0.547 0-1 0.453-1 1s0.453 1 1 1h22.667c0.547 0 1-0.453 1-1s-0.453-1-1-1h-2v-5.987l6-0.013c0.56 0 1-0.453 1-1v-8c0-0.373-0.213-0.72-0.547-0.893zM8 9.187c0-1.853 1.133-2.52 2.52-2.52h6.973c1.373 0 2.507 0.667 2.507 2.52v1.64c0 1.84-1.133 2.507-2.52 2.507h-6.96c-1.387 0-2.52-0.667-2.52-2.52v-1.627zM8.667 16.333h4c0.547 0 1 0.453 1 1s-0.453 1-1 1h-4c-0.547 0-1-0.453-1-1s0.453-1 1-1z"></path>
</symbol>
<symbol id="heart" viewBox="0 0 32 32">
<path fill="#3d5278" style="fill: var(--color3, #3d5278)" d="M21.92 4.133c-2.413 0-4.573 1.173-5.92 2.973-1.347-1.8-3.507-2.973-5.92-2.973-4.093 0-7.413 3.333-7.413 7.453 0 1.587 0.253 3.053 0.693 4.413 2.107 6.667 8.6 10.653 11.813 11.747 0.453 0.16 1.2 0.16 1.653 0 3.213-1.093 9.707-5.080 11.813-11.747 0.44-1.36 0.693-2.827 0.693-4.413 0-4.12-3.32-7.453-7.413-7.453z"></path>
</symbol>
<symbol id="heart-empty" viewBox="0 0 32 32">
<path fill="none" stroke="#90a3bf" style="stroke: var(--color1, #90a3bf)" stroke-linejoin="round" stroke-linecap="round" stroke-miterlimit="4" stroke-width="2" d="M16.827 27.746c-0.453 0.16-1.2 0.16-1.653 0-3.867-1.32-12.507-6.827-12.507-16.16 0-4.12 3.32-7.453 7.413-7.453 2.427 0 4.573 1.173 5.92 2.987 1.347-1.813 3.507-2.987 5.92-2.987 4.093 0 7.413 3.333 7.413 7.453 0 9.333-8.64 14.84-12.507 16.16z"></path>
</symbol>
<symbol id="ic-actions-star" viewBox="0 0 32 32">
<path fill="none" stroke="#c3d4e9" style="stroke: var(--color4, #c3d4e9)" stroke-linejoin="round" stroke-linecap="round" stroke-miterlimit="4" stroke-width="2.4" d="M14.667 4.254c0.092-0.292 0.275-0.547 0.522-0.728s0.545-0.279 0.851-0.279c0.306 0 0.604 0.098 0.851 0.279s0.43 0.436 0.522 0.728l2.48 7.627h8c0.317-0.012 0.63 0.080 0.889 0.262s0.453 0.445 0.55 0.747c0.097 0.302 0.092 0.628-0.014 0.927s-0.307 0.556-0.572 0.73l-6.493 4.707 2.48 7.64c0.098 0.291 0.101 0.606 0.007 0.898s-0.278 0.547-0.527 0.728c-0.249 0.18-0.548 0.276-0.856 0.274s-0.605-0.103-0.852-0.286l-6.507-4.76-6.493 4.72c-0.246 0.184-0.544 0.284-0.851 0.286s-0.607-0.094-0.856-0.274c-0.249-0.18-0.433-0.435-0.527-0.728s-0.091-0.607 0.007-0.898l2.48-7.64-6.493-4.707c-0.265-0.174-0.466-0.431-0.572-0.73s-0.111-0.625-0.014-0.927c0.097-0.302 0.29-0.565 0.55-0.747s0.572-0.274 0.889-0.262h8l2.547-7.587z"></path>
</symbol>
<symbol id="menu" viewBox="0 0 32 32">
<path fill="none" stroke="#3d5278" style="stroke: var(--color3, #3d5278)" stroke-linejoin="miter" stroke-linecap="round" stroke-miterlimit="4" stroke-width="2" d="M4 9.333h24"></path>
<path fill="none" stroke="#3d5278" style="stroke: var(--color3, #3d5278)" stroke-linejoin="miter" stroke-linecap="round" stroke-miterlimit="4" stroke-width="2" d="M4 16h24"></path>
<path fill="none" stroke="#3d5278" style="stroke: var(--color3, #3d5278)" stroke-linejoin="miter" stroke-linecap="round" stroke-miterlimit="4" stroke-width="2" d="M4 22.667h24"></path>
</symbol>
<symbol id="notification" viewBox="0 0 32 32">
<path fill="#3d5278" style="fill: var(--color3, #3d5278)" d="M25.787 19.32l-1.333-2.213c-0.28-0.493-0.533-1.427-0.533-1.973v-3.373c0-3.133-1.84-5.84-4.493-7.107-0.693-1.227-1.973-1.987-3.44-1.987-1.453 0-2.76 0.787-3.453 2.027-2.6 1.293-4.4 3.973-4.4 7.067v3.373c0 0.547-0.253 1.48-0.533 1.96l-1.347 2.227c-0.533 0.893-0.653 1.88-0.32 2.787 0.32 0.893 1.080 1.587 2.067 1.92 2.587 0.88 5.307 1.307 8.027 1.307s5.44-0.427 8.027-1.293c0.933-0.307 1.653-1.013 2-1.933s0.253-1.933-0.267-2.787z"></path>
<path fill="#3d5278" style="fill: var(--color3, #3d5278)" d="M19.773 26.68c-0.56 1.547-2.040 2.653-3.773 2.653-1.053 0-2.093-0.427-2.827-1.187-0.427-0.4-0.747-0.933-0.933-1.48 0.173 0.027 0.347 0.040 0.533 0.067 0.307 0.040 0.627 0.080 0.947 0.107 0.76 0.067 1.533 0.107 2.307 0.107 0.76 0 1.52-0.040 2.267-0.107 0.28-0.027 0.56-0.040 0.827-0.080 0.213-0.027 0.427-0.053 0.653-0.080z"></path>
</symbol>
<symbol id="profile-2user" viewBox="0 0 32 32">
<path fill="#90a3bf" style="fill: var(--color1, #90a3bf)" d="M12 2.667c-3.493 0-6.333 2.84-6.333 6.333 0 3.427 2.68 6.2 6.173 6.32 0.107-0.013 0.213-0.013 0.293 0 0.027 0 0.040 0 0.067 0 0.013 0 0.013 0 0.027 0 3.413-0.12 6.093-2.893 6.107-6.32 0-3.493-2.84-6.333-6.333-6.333z"></path>
<path fill="#90a3bf" style="fill: var(--color1, #90a3bf)" d="M18.773 18.867c-3.72-2.48-9.787-2.48-13.533 0-1.693 1.133-2.627 2.667-2.627 4.307s0.933 3.16 2.613 4.28c1.867 1.253 4.32 1.88 6.773 1.88s4.907-0.627 6.773-1.88c1.68-1.133 2.613-2.653 2.613-4.307-0.013-1.64-0.933-3.16-2.613-4.28z"></path>
<path fill="#90a3bf" style="fill: var(--color1, #90a3bf)" d="M26.653 9.787c0.213 2.587-1.627 4.853-4.173 5.16-0.013 0-0.013 0-0.027 0h-0.040c-0.080 0-0.16 0-0.227 0.027-1.293 0.067-2.48-0.347-3.373-1.107 1.373-1.227 2.16-3.067 2-5.067-0.093-1.080-0.467-2.067-1.027-2.907 0.507-0.253 1.093-0.413 1.693-0.467 2.613-0.227 4.947 1.72 5.173 4.36z"></path>
<path fill="#90a3bf" style="fill: var(--color1, #90a3bf)" d="M29.32 22.121c-0.107 1.293-0.933 2.413-2.32 3.173-1.333 0.733-3.013 1.080-4.68 1.040 0.96-0.867 1.52-1.947 1.627-3.093 0.133-1.653-0.653-3.24-2.227-4.507-0.893-0.707-1.933-1.267-3.067-1.68 2.947-0.853 6.653-0.28 8.933 1.56 1.227 0.987 1.853 2.227 1.733 3.507z"></path>
</symbol>
<symbol id="search-normal" viewBox="0 0 32 32">
<path fill="none" stroke="#3d5278" style="stroke: var(--color3, #3d5278)" stroke-linejoin="round" stroke-linecap="round" stroke-miterlimit="4" stroke-width="2" d="M15.333 28c6.996 0 12.667-5.671 12.667-12.667s-5.671-12.667-12.667-12.667c-6.996 0-12.667 5.671-12.667 12.667s5.671 12.667 12.667 12.667z"></path>
<path fill="none" stroke="#3d5278" style="stroke: var(--color3, #3d5278)" stroke-linejoin="round" stroke-linecap="round" stroke-miterlimit="4" stroke-width="2" d="M29.333 29.333l-2.667-2.667"></path>
</symbol>
<symbol id="setting-2" viewBox="0 0 32 32">
<path fill="#3d5278" style="fill: var(--color3, #3d5278)" d="M26.8 12.294c-2.413 0-3.4-1.707-2.2-3.8 0.693-1.213 0.28-2.76-0.933-3.453l-2.307-1.32c-1.053-0.627-2.413-0.253-3.040 0.8l-0.147 0.253c-1.2 2.093-3.173 2.093-4.387 0l-0.147-0.253c-0.6-1.053-1.96-1.427-3.013-0.8l-2.307 1.32c-1.213 0.693-1.627 2.253-0.933 3.467 1.213 2.080 0.227 3.787-2.187 3.787-1.387 0-2.533 1.133-2.533 2.533v2.347c0 1.387 1.133 2.533 2.533 2.533 2.413 0 3.4 1.707 2.187 3.8-0.693 1.213-0.28 2.76 0.933 3.453l2.307 1.32c1.053 0.627 2.413 0.253 3.040-0.8l0.147-0.253c1.2-2.093 3.173-2.093 4.387 0l0.147 0.253c0.627 1.053 1.987 1.427 3.040 0.8l2.307-1.32c1.213-0.693 1.627-2.253 0.933-3.453-1.213-2.093-0.227-3.8 2.187-3.8 1.387 0 2.533-1.133 2.533-2.533v-2.347c-0.013-1.387-1.147-2.533-2.547-2.533zM16 20.334c-2.387 0-4.333-1.947-4.333-4.333s1.947-4.333 4.333-4.333c2.387 0 4.333 1.947 4.333 4.333s-1.947 4.333-4.333 4.333z"></path>
</symbol>
</defs>
</svg>
